HIERARCHY
ROOT root
{
	OFFSET	0	13.1	24.9
	CHANNELS 6  Xposition Yposition Zposition Xrotation Yrotation Zrotation
	JOINT spine_1
	{
		OFFSET	0	9.99999	0
		CHANNELS 3  Xrotation Yrotation Zrotation
		JOINT spine_2
		{
			OFFSET	0	112	-10
			CHANNELS 3  Xrotation Yrotation Zrotation
			JOINT spine_3
			{
				OFFSET	0	206.5	19.3
				CHANNELS 3  Xrotation Yrotation Zrotation
				JOINT spine_4
				{
					OFFSET	0	110.4	14.6
					CHANNELS 3  Xrotation Yrotation Zrotation
					JOINT neck_1
					{
						OFFSET	0	71.8	-50.3
						CHANNELS 3  Xrotation Yrotation Zrotation
						JOINT neck_2
						{
							OFFSET	0	86.2	-25.8
							CHANNELS 3  Xrotation Yrotation Zrotation
							JOINT head_ee
							{
								OFFSET	0	179.8	-8.7
								CHANNELS 3  Xrotation Yrotation Zrotation
								End Site
								{
									OFFSET	1	0	0
								}
							}
						}
					}
					JOINT left_clavicle
					{
						OFFSET	-43.2	22.4	-70.8
						CHANNELS 3  Xrotation Yrotation Zrotation
						JOINT left_shoulder
						{
							OFFSET	-93.9	-5.79999	48.7
							CHANNELS 3  Xrotation Yrotation Zrotation
							JOINT left_elbow
							{
								OFFSET	-291.4	-30.8	15.2
								CHANNELS 3  Xrotation Yrotation Zrotation
								JOINT left_lowarm_twist
								{
									OFFSET	-110.7	-3.89999	13.6
									CHANNELS 3  Xrotation Yrotation Zrotation
									JOINT left_hand
									{
										OFFSET	-110.7	-3.89999	13.6
										CHANNELS 3  Xrotation Yrotation Zrotation
										JOINT left_ee
										{
											OFFSET	-80.8	-5.10001	12.1
											CHANNELS 3  Xrotation Yrotation Zrotation
											End Site
											{
												OFFSET	1	0	0
											}
										}
									}
								}
							}
						}
					}
					JOINT right_clavicle
					{
						OFFSET	43.2	22.4	-70.8
						CHANNELS 3  Xrotation Yrotation Zrotation
						JOINT right_shoulder
						{
							OFFSET	93.9	-5.79999	48.7
							CHANNELS 3  Xrotation Yrotation Zrotation
							JOINT right_elbow
							{
								OFFSET	291.4	-30.8	15.2
								CHANNELS 3  Xrotation Yrotation Zrotation
								JOINT right_lowarm_twist
								{
									OFFSET	110.7	-3.89999	13.6
									CHANNELS 3  Xrotation Yrotation Zrotation
									JOINT right_hand
									{
										OFFSET	110.7	-3.89999	13.6
										CHANNELS 3  Xrotation Yrotation Zrotation
										JOINT right_ee
										{
											OFFSET	80.8	-5.10001	12.1
											CHANNELS 3  Xrotation Yrotation Zrotation
											End Site
											{
												OFFSET	1	0	0
											}
										}
									}
								}
							}
						}
					}
				}
			}
		}
	}
	JOINT left_hip
	{
		OFFSET	-82.8	-127.5	0.300001
		CHANNELS 3  Xrotation Yrotation Zrotation
		JOINT left_knee
		{
			OFFSET	-28.2	-396.7	2.2
			CHANNELS 3  Xrotation Yrotation Zrotation
			JOINT left_ankle
			{
				OFFSET	-11.7	-411.3	35.4
				CHANNELS 3  Xrotation Yrotation Zrotation
				JOINT left_toes
				{
					OFFSET	0	-60	-88.6
					CHANNELS 3  Xrotation Yrotation Zrotation
					JOINT left_foot_ee
					{
						OFFSET	-22.5	-16.5	-42.2
						CHANNELS 3  Xrotation Yrotation Zrotation
						End Site
						{
							OFFSET	1	0	0
						}
					}
				}
			}
		}
	}
	JOINT right_hip
	{
		OFFSET	82.8	-127.5	0.300001
		CHANNELS 3  Xrotation Yrotation Zrotation
		JOINT right_knee
		{
			OFFSET	28.2	-396.7	2.2
			CHANNELS 3  Xrotation Yrotation Zrotation
			JOINT right_ankle
			{
				OFFSET	11.7	-411.3	35.4
				CHANNELS 3  Xrotation Yrotation Zrotation
				JOINT right_toes
				{
					OFFSET	0	-60	-88.6
					CHANNELS 3  Xrotation Yrotation Zrotation
					JOINT right_foot_ee
					{
						OFFSET	22.5	-16.5	-42.2
						CHANNELS 3  Xrotation Yrotation Zrotation
						End Site
						{
							OFFSET	1	0	0
						}
					}
				}
			}
		}
	}
}
MOTION
Frames: 14
Frame Time: 0.02
3467.66325055 731.611 -1553.39905457 -4.81658702654 69.253679442 0.456807469757 1.51981 0.95338 2.1822 1.5221 0.812625 2.23841 1.55455 0.388345 2.34942 1.54764 0.754425 2.25868 -25.5098 10.8378 5.76375 -26.1445 18.5171 11.0472 -0.0 0.0 -0.0 0.209985 24.6747 3.1257 -19.4327 -10.0912 59.8624 1.91965 -43.5549 0.766992 -45.0921 -3.50825 4.40193 -0.635305 -13.4476 -10.0383 -0.0 0.0 -0.0 13.5413 21.176 -27.4213 -7.01425 25.9271 -64.647 0.506467 14.0844 -0.0625652 71.468 2.8941 8.05762 1.28031 -17.2025 -14.9712 0.0 0.0 0.0 16.4964 32.1613 -14.7903 -29.0685 0.078615 4.41267 37.4131 1.44814 -4.63703 -0.103152 0.0 0.0 -0.0 0.0 -0.0 -3.63219 2.30581 6.52451 -8.73025 -0.259805 -1.31334 38.393 21.1841 5.2576 -28.185 0.0 0.0 0.0 0.0 0.0 
3469.80982534 731.611 -1556.2317488 -4.50014598061 67.7231061515 0.116704312199 1.51981 0.95338 2.1822 1.5221 0.812625 2.23841 1.55455 0.388345 2.34942 1.54764 0.754425 2.25868 -25.5098 10.8378 5.76375 -26.1445 18.5171 11.0472 -0.0 0.0 -0.0 0.209985 24.6747 3.1257 -19.4327 -10.0912 59.8624 1.91965 -43.5549 0.766992 -45.0921 -3.50825 4.40193 -0.635305 -13.4476 -10.0383 -0.0 0.0 -0.0 13.5413 21.176 -27.4213 -7.01425 25.9271 -64.647 0.506467 14.0844 -0.0625652 71.468 2.8941 8.05762 1.28031 -17.2025 -14.9712 0.0 0.0 0.0 16.4964 32.1613 -14.7903 -29.0685 0.078615 4.41267 37.4131 1.44814 -4.63703 -0.103152 0.0 0.0 -0.0 0.0 -0.0 -3.63219 2.30581 6.52451 -8.73025 -0.259805 -1.31334 38.393 21.1841 5.2576 -28.185 0.0 0.0 0.0 0.0 0.0 
3456.3944401 733.212 -1554.42528475 -6.40651842902 73.2992487328 2.61144488995 1.71767 1.02999 2.22086 1.71998 0.886618 2.28185 1.75589 0.461642 2.40407 1.7488 0.835428 2.30108 -26.0808 11.0194 5.32174 -26.806 19.0841 10.8703 -0.0 0.0 -0.0 0.166462 24.8447 3.08524 -21.148 -9.73897 59.3214 1.7754 -41.3272 0.669626 -45.8169 -3.58993 4.44644 -0.699529 -13.6008 -10.542 -0.0 0.0 -0.0 13.5481 20.2273 -27.5112 -5.54863 26.6673 -65.1874 0.561397 15.5414 -0.07661 71.7234 2.92113 8.07616 1.20434 -14.3913 -13.5264 0.0 0.0 0.0 17.0097 27.0807 -14.4891 -31.1853 -0.00315405 4.7272 37.3406 6.01068 -4.62041 1.73108 -0.0 -0.0 -0.0 0.0 -0.0 -4.14534 0.823775 5.47076 -8.16445 -0.249063 -1.22719 38.4509 22.0733 5.30406 -27.7384 0.0 0.0 0.0 0.0 0.0 
3442.91153491 734.412 -1549.55767208 -9.67249531018 78.8468166041 6.03563057585 1.94095 1.06503 2.20249 1.94318 0.922756 2.26576 1.98011 0.509489 2.39275 1.9732 0.880889 2.28236 -26.7178 10.5459 4.64442 -27.4395 18.476 10.1114 -0.0 0.0 -0.0 -0.101643 25.4643 2.79808 -23.0938 -9.42368 59.5219 1.69807 -40.0663 0.619197 -46.506 -3.66812 4.4878 -0.634942 -14.7246 -10.5763 -0.0 0.0 -0.0 13.429 19.5384 -27.2805 -3.71483 27.3699 -66.0992 0.648245 17.803 -0.101531 72.6107 3.01567 8.13962 1.53883 -10.632 -14.382 0.0 0.0 0.0 17.9585 24.4129 -14.6019 -33.901 -0.125011 5.12606 33.4768 8.66405 -4.25364 2.28629 -0.0 -0.0 -0.0 0.0 -0.0 -5.59212 -0.762886 4.87417 -7.78494 -0.241381 -1.16946 38.2354 22.3075 5.29461 -27.5604 0.0 0.0 0.0 0.0 0.0 
3428.51759302 735.644 -1538.5679835 -21.0819595246 85.0339403247 17.5345013335 1.99185 0.926021 2.15944 1.9941 0.786768 2.21395 2.02481 0.386432 2.31755 2.0181 0.747506 2.22751 -27.6314 10.0573 5.1133 -28.2833 17.4096 10.4339 -0.0 0.0 -0.0 -0.164372 25.368 2.70521 -26.1974 -8.96097 59.5947 1.63977 -39.0837 0.582058 -46.9017 -3.71323 4.51113 -0.777495 -14.7257 -11.551 -0.0 0.0 -0.0 13.44 18.9664 -27.344 -2.50397 27.7001 -66.4095 0.699585 19.114 -0.117787 72.6803 3.02313 8.14454 1.59218 -8.98618 -14.1434 0.0 0.0 0.0 18.6166 20.9409 -14.5975 -35.4786 -0.204454 5.35502 31.3777 6.75034 -4.03391 3.87771 -0.0 -0.0 -0.0 0.0 -0.0 -5.89618 -1.91514 4.65235 -7.71819 -0.23999 -1.15931 37.9919 22.1468 5.26363 -27.4265 0.0 0.0 0.0 0.0 0.0 
3411.16917038 734.254 -1527.54963203 -85.0440758355 88.1133211648 81.877390981 2.29902 0.789059 2.16511 2.30139 0.649724 2.2109 2.32644 0.263993 2.28918 2.31967 0.622125 2.21882 -26.0919 9.8783 4.73768 -26.6716 17.1227 9.68798 -0.0 0.0 -0.0 -0.16047 24.5466 2.61781 -28.7268 -8.25394 60.5564 1.40586 -34.8522 0.441292 -46.6675 -3.6865 4.49736 -0.980727 -12.3395 -11.9347 -0.0 0.0 -0.0 13.2589 18.5186 -26.9471 -1.68045 27.7803 -66.6497 0.794882 21.4925 -0.150861 73.7233 3.13559 8.21712 1.96792 -7.85985 -16.2618 0.0 0.0 0.0 19.322 16.9464 -14.7212 -34.5704 -0.157946 5.22347 26.4007 6.63996 -3.49135 4.12676 -0.0 -0.0 -0.0 0.0 -0.0 -6.82392 -3.60263 4.41921 -7.16166 -0.227935 -1.07475 38.3304 21.8928 5.28414 -26.1488 0.0 0.0 0.0 0.0 0.0 
3401.76927707 734.68 -1521.60046375 -139.848245603 87.316633442 136.780975542 2.3954 0.774792 2.10184 2.39763 0.639508 2.14685 2.42151 0.268507 2.22389 2.41513 0.616278 2.15363 -26.3845 10.1052 4.96355 -26.9979 17.4873 10.08 -0.0 0.0 -0.0 -0.189035 24.1587 2.53546 -30.0196 -6.00649 61.2963 1.2574 -31.9166 0.359579 -46.8162 -3.70347 4.50612 -0.900089 -12.4986 -11.4481 -0.0 0.0 -0.0 13.3287 18.7268 -27.0979 -0.911672 28.2998 -66.2 0.937226 24.9038 -0.206957 73.3258 3.09258 8.1897 1.97688 -5.4409 -15.4334 0.0 0.0 0.0 21.1107 15.3271 -14.8771 -30.459 0.0262103 4.61963 20.7655 1.47431 -2.83854 3.45458 -0.0 -0.0 -0.0 0.0 -0.0 -8.11166 -5.18175 4.01202 -5.09777 -0.176068 -0.762288 38.5227 22.0784 5.31112 -27.7414 0.0 0.0 0.0 0.0 0.0 
3392.16880754 733.51 -1518.69368553 -142.662164697 85.8024744516 139.856294096 2.55882 0.770531 2.11221 2.56108 0.634596 2.15693 2.58476 0.268328 2.23224 2.57833 0.617419 2.16191 -26.0515 10.1872 5.0008 -26.6605 17.6098 10.0955 -0.0 0.0 -0.0 -0.239733 23.8035 2.42605 -31.403 -5.14108 62.0417 1.12809 -29.1966 0.29382 -46.5616 -3.67444 4.4911 -0.93302 -11.615 -11.2975 -0.0 0.0 -0.0 13.2744 18.5878 -26.9793 0.383884 28.8166 -65.7121 1.0902 28.3706 -0.275574 73.768 3.14045 8.22019 2.1336 -3.652 -15.8325 0.0 0.0 0.0 23.2139 13.1702 -15.042 -26.7309 0.155334 4.06214 15.4242 -1.12892 -2.17265 2.66955 -0.0 -0.0 -0.0 0.0 -0.0 -8.69548 -6.45232 3.58484 -3.09494 -0.114999 -0.460995 38.4013 21.8305 5.28798 -28.3423 0.0 0.0 0.0 0.0 0.0 
3386.57702232 731.468 -1517.31916573 -145.878594625 84.9089394117 143.349718492 2.70419 0.587035 2.13301 2.70661 0.450149 2.16602 2.7232 0.0901292 2.21044 2.71665 0.438014 2.16851 -26.235 9.83807 4.90868 -26.8042 16.9862 9.84844 -0.0 0.0 -0.0 -0.201845 23.2476 2.41357 -30.0415 -4.77898 62.9826 0.779266 -21.1078 0.145189 -45.9253 -3.6022 4.45301 -0.877741 -9.48646 -10.0049 -0.0 0.0 -0.0 13.1901 18.5036 -26.7872 1.34715 29.1397 -65.5937 1.22918 31.336 -0.344779 74.0743 3.17374 8.24109 2.72095 0.639721 -18.2509 0.0 0.0 0.0 24.7636 11.2776 -15.8714 -24.2023 0.222135 3.67986 14.4799 -4.00033 -2.06619 1.40749 -0.0 -0.0 -0.0 0.0 -0.0 -8.5077 -6.98346 3.18886 -3.74933 -0.136112 -0.559206 38.1943 22.6535 5.30729 -27.8872 0.0 0.0 0.0 0.0 0.0 
3378.27955262 729.893 -1516.10052817 -146.703356682 84.6137706826 144.457996967 2.71607 0.552454 2.0416 2.71829 0.421451 2.07259 2.73313 0.0774323 2.11358 2.72713 0.410188 2.07485 -26.3606 9.60187 4.85511 -26.903 16.5608 9.68875 -0.0 0.0 -0.0 -0.276098 23.4413 2.33427 -29.2199 -4.43906 63.9566 0.555227 -15.3787 0.0749652 -45.5063 -3.55487 4.42749 -0.838422 -7.92382 -9.06144 -0.0 0.0 -0.0 13.2381 18.5426 -26.897 2.26762 29.4724 -65.8382 1.34329 33.639 -0.406078 74.3456 3.20331 8.25945 3.14092 3.64984 -19.9977 0.0 0.0 0.0 25.8044 9.92395 -16.0306 -22.4892 0.257773 3.4194 13.7554 -6.22567 -1.98609 0.49716 -0.0 -0.0 -0.0 0.0 -0.0 -8.43125 -7.33311 2.9418 -4.5941 -0.161703 -0.686325 38.0642 23.1596 5.31956 -27.5707 0.0 0.0 0.0 0.0 0.0 
3370.81484046 729.158 -1511.9640853 -145.680668111 84.2987932489 143.838754406 2.75712 0.596189 1.98642 2.7592 0.468607 2.02032 2.77534 0.134046 2.06959 2.76965 0.459151 2.02248 -26.1987 9.51942 4.87976 -26.7211 16.3827 9.63474 -0.0 0.0 -0.0 -0.442086 23.7362 2.14313 -28.8918 -4.12707 64.7255 0.384403 -10.7815 0.0362744 -45.2733 -3.52862 4.41315 -0.78574 -6.50628 -8.08822 -0.0 0.0 -0.0 13.2421 18.3901 -26.9153 3.08651 29.6173 -65.7367 1.4184 35.0911 -0.448479 74.6887 3.24085 8.28248 3.35823 5.82848 -20.6198 0.0 0.0 0.0 28.0622 8.56637 -16.4731 -21.0856 0.281156 3.2053 13.341 -7.12623 -1.93735 -0.119544 0.0 0.0 -0.0 0.0 -0.0 -8.27559 -7.55835 2.70409 -4.77511 -0.166942 -0.713611 38.0027 23.553 5.33332 -27.336 0.0 0.0 0.0 0.0 0.0 
3363.64791955 724.213 -1507.07035564 -144.598418599 83.3591329991 143.060509953 2.95346 0.585997 1.96701 2.9555 0.459669 2.00029 2.97104 0.135475 2.04794 2.96548 0.457142 2.00087 -27.2691 9.0661 4.83534 -27.7688 15.5916 9.52703 -0.0 0.0 -0.0 -0.621794 24.1661 1.95346 -27.8322 -4.02102 65.2326 0.258597 -7.30009 0.0164963 -45.6887 -3.57545 4.43864 -0.590204 -4.53132 -5.90492 -0.0 0.0 -0.0 13.0299 18.5863 -26.4083 3.84449 29.5241 -65.7507 1.55191 37.5494 -0.527576 75.1144 3.28762 8.31074 3.44064 7.32188 -20.5489 0.0 0.0 0.0 29.381 8.4094 -15.8556 -15.361 0.322038 2.32827 10.9867 -4.69768 -1.5941 -0.86162 0.0 0.0 -0.0 0.0 -0.0 -8.22609 -7.56581 2.6538 -5.87358 -0.196885 -0.879526 38.5559 23.958 5.40747 -26.5179 0.0 0.0 0.0 0.0 0.0 
3354.59991647 720.039 -1501.47173101 -141.725332624 82.4234611941 140.411703798 3.14925 0.693621 1.93804 3.15116 0.568918 1.97823 3.17025 0.25402 2.04265 3.16489 0.573367 1.97694 -27.6348 8.92125 4.96982 -28.1188 15.2838 9.63034 -0.0 0.0 -0.0 -0.798531 24.5195 1.76211 -27.9378 -3.83765 65.7644 0.186061 -5.26617 0.00855672 -45.6339 -3.56926 4.4353 -0.520813 -3.00233 -4.77553 -0.0 0.0 -0.0 12.8088 18.5921 -25.8935 4.36654 29.7628 -65.0253 1.65147 39.2831 -0.589447 75.4304 3.32246 8.33148 3.5323 8.35143 -20.7413 0.0 0.0 0.0 30.3799 7.59864 -15.3215 -12.3439 0.308291 1.86562 9.55428 -3.74763 -1.38877 -0.873675 0.0 0.0 -0.0 0.0 -0.0 -8.17143 -7.57164 2.7378 -6.13297 -0.203491 -0.918786 38.8529 24.0833 5.44238 -25.8854 0.0 0.0 0.0 0.0 0.0 
3338.48411964 713.183 -1492.59771555 -138.069532097 81.8500899275 136.896521868 3.27608 0.636883 1.92693 3.278 0.513002 1.96353 3.29493 0.205433 2.01899 3.28962 0.521655 1.96125 -28.0303 8.64445 3.82978 -28.5499 15.1899 8.48455 -0.0 0.0 -0.0 -1.50083 24.0867 0.75696 -27.5946 -3.55984 65.9849 0.205464 -5.81173 0.0104294 -45.6504 -3.57112 4.4363 -0.210232 0.108699 -1.35775 -0.0 0.0 -0.0 12.6578 18.4942 -25.5489 5.36148 29.3574 -64.1317 1.83735 42.3034 -0.710931 75.5787 3.33886 8.34116 3.61207 9.66087 -20.7089 0.0 0.0 0.0 32.7934 6.9307 -15.0528 -7.53215 0.236051 1.13103 7.85614 -1.92548 -1.14185 -1.07245 0.0 0.0 -0.0 0.0 -0.0 -8.04074 -7.58107 3.33463 -7.26683 -0.230276 -1.09072 38.8075 24.3304 5.45111 -23.9391 0.0 0.0 0.0 0.0 0.0 
